<svg width="62" height="18" viewBox="0 0 62 18" fill="none" xmlns="http://www.w3.org/2000/svg">
<g clip-path="url(#clip0_184_1608)">
<path d="M0.5 3.6H4.21951V18H8.36411V3.6H12.0836V0H0.5V3.6Z" fill="#404040"/>
<path d="M57.5467 0V10.8347L53.5509 0H48.6199V18H52.5519V7.16535L56.5477 18H61.4788V0H57.5467Z" fill="#404040"/>
<path d="M36.5474 0L32.1689 18H46.2819L41.9035 0H36.5474ZM41.3338 14.4H37.117L39.2254 4.41293L41.3338 14.4Z" fill="#404040"/>
<path d="M18.5662 0H14.4216V18H18.5662V0Z" fill="#404040"/>
<path d="M32.488 0H20.9043V3.6H24.6238V18H28.7684V3.6H32.488V0Z" fill="#404040"/>
</g>
<defs>
<clipPath id="clip0_184_1608">
<rect width="61" height="18" fill="white" transform="translate(0.5)"/>
</clipPath>
</defs>
</svg>
